<svg xmlns="http://www.w3.org/2000/svg" xmlns:xlink="http://www.w3.org/1999/xlink" width="40" zoomAndPan="magnify" viewBox="0 0 30 30.000001" height="40" preserveAspectRatio="xMidYMid meet" version="1.0"><path fill="#ffffff" d="M 21.980469 16.105469 C 21.980469 16.753906 21.917969 17.394531 21.792969 18.03125 C 21.664062 18.664062 21.480469 19.28125 21.230469 19.878906 C 20.984375 20.476562 20.679688 21.042969 20.320312 21.582031 C 19.960938 22.121094 19.550781 22.617188 19.09375 23.074219 C 18.636719 23.535156 18.140625 23.941406 17.601562 24.300781 C 17.0625 24.660156 16.496094 24.964844 15.898438 25.210938 C 15.300781 25.460938 14.683594 25.648438 14.046875 25.773438 C 13.414062 25.898438 12.773438 25.960938 12.125 25.960938 C 11.480469 25.960938 10.835938 25.898438 10.203125 25.773438 C 9.570312 25.648438 8.953125 25.460938 8.355469 25.210938 C 7.757812 24.964844 7.1875 24.660156 6.652344 24.300781 C 6.113281 23.941406 5.613281 23.535156 5.15625 23.074219 C 4.699219 22.617188 4.289062 22.121094 3.929688 21.582031 C 3.570312 21.042969 3.269531 20.476562 3.019531 19.878906 C 2.773438 19.28125 2.585938 18.664062 2.460938 18.03125 C 2.332031 17.394531 2.269531 16.753906 2.269531 16.105469 C 2.269531 15.460938 2.332031 14.820312 2.460938 14.183594 C 2.585938 13.550781 2.773438 12.933594 3.019531 12.335938 C 3.269531 11.738281 3.570312 11.171875 3.929688 10.632812 C 4.289062 10.09375 4.699219 9.597656 5.15625 9.136719 C 5.613281 8.679688 6.113281 8.273438 6.652344 7.914062 C 7.1875 7.554688 7.757812 7.25 8.355469 7.003906 C 8.953125 6.753906 9.570312 6.566406 10.203125 6.441406 C 10.835938 6.316406 11.480469 6.253906 12.125 6.253906 C 12.773438 6.253906 13.414062 6.316406 14.046875 6.441406 C 14.683594 6.566406 15.300781 6.753906 15.898438 7.003906 C 16.496094 7.25 17.0625 7.554688 17.601562 7.914062 C 18.140625 8.273438 18.636719 8.679688 19.09375 9.136719 C 19.550781 9.597656 19.960938 10.09375 20.320312 10.632812 C 20.679688 11.171875 20.984375 11.738281 21.230469 12.335938 C 21.480469 12.933594 21.664062 13.550781 21.792969 14.183594 C 21.917969 14.820312 21.980469 15.460938 21.980469 16.105469 Z M 21.980469 16.105469 " fill-opacity="1" fill-rule="nonzero"/><path fill="#cc0000" d="M 12.238281 23.726562 L 12.113281 23.511719 C 10.203125 20.257812 5.128906 13.355469 5.078125 13.285156 L 5.003906 13.1875 L 6.734375 11.476562 L 12.207031 15.296875 C 15.652344 10.828125 18.863281 7.757812 20.960938 5.964844 C 23.253906 4 24.75 3.097656 24.761719 3.089844 L 24.796875 3.070312 L 27.730469 3.070312 L 27.449219 3.320312 C 20.246094 9.734375 12.4375 23.375 12.359375 23.511719 Z M 12.238281 23.726562 " fill-opacity="1" fill-rule="nonzero"/></svg>