<?xml version="1.0" encoding="UTF-8"?>
<svg id="Layer_2" data-name="Layer 2" xmlns="http://www.w3.org/2000/svg" xmlns:xlink="http://www.w3.org/1999/xlink" viewBox="0 0 332.28 61.56">
  <defs>
    <style>
      .cls-1 {
        clip-path: url(#clippath-11);
      }

      .cls-2 {
        clip-path: url(#clippath-16);
      }

      .cls-3 {
        clip-path: url(#clippath-2);
      }

      .cls-4 {
        clip-path: url(#clippath-13);
      }

      .cls-5 {
        clip-path: url(#clippath-15);
      }

      .cls-6 {
        clip-path: url(#clippath-6);
      }

      .cls-7 {
        clip-path: url(#clippath-7);
      }

      .cls-8 {
        clip-path: url(#clippath-1);
      }

      .cls-9 {
        clip-path: url(#clippath-4);
      }

      .cls-10 {
        clip-path: url(#clippath-12);
      }

      .cls-11 {
        clip-path: url(#clippath-9);
      }

      .cls-12 {
        clip-path: url(#clippath);
      }

      .cls-13 {
        fill: none;
      }

      .cls-14 {
        clip-path: url(#clippath-3);
      }

      .cls-15 {
        clip-path: url(#clippath-8);
      }

      .cls-16 {
        clip-path: url(#clippath-14);
      }

      .cls-17 {
        clip-path: url(#clippath-5);
      }

      .cls-18 {
        clip-path: url(#clippath-10);
      }

      .cls-19 {
        fill: #667088;
      }
    </style>
    <clipPath id="clippath">
      <polyline class="cls-13" points="0 1.03 0 61.56 332.09 61.56 332.09 1.03"/>
    </clipPath>
    <clipPath id="clippath-1">
      <polyline class="cls-13" points="0 1.03 0 61.56 332.09 61.56 332.09 1.03"/>
    </clipPath>
    <clipPath id="clippath-2">
      <polyline class="cls-13" points="0 1.03 0 61.56 332.09 61.56 332.09 1.03"/>
    </clipPath>
    <clipPath id="clippath-3">
      <polyline class="cls-13" points="0 1.03 0 61.56 332.09 61.56 332.09 1.03"/>
    </clipPath>
    <clipPath id="clippath-4">
      <polyline class="cls-13" points="0 1.03 0 61.56 332.09 61.56 332.09 1.03"/>
    </clipPath>
    <clipPath id="clippath-5">
      <polyline class="cls-13" points="0 1.03 0 61.56 332.09 61.56 332.09 1.03"/>
    </clipPath>
    <clipPath id="clippath-6">
      <polyline class="cls-13" points="0 1.03 0 61.56 332.09 61.56 332.09 1.03"/>
    </clipPath>
    <clipPath id="clippath-7">
      <polyline class="cls-13" points="0 1.03 0 61.56 332.09 61.56 332.09 1.03"/>
    </clipPath>
    <clipPath id="clippath-8">
      <polyline class="cls-13" points="0 1.03 0 61.56 332.09 61.56 332.09 1.03"/>
    </clipPath>
    <clipPath id="clippath-9">
      <polyline class="cls-13" points="0 1.03 0 61.56 332.09 61.56 332.09 1.03"/>
    </clipPath>
    <clipPath id="clippath-10">
      <polyline class="cls-13" points="0 1.03 0 61.56 332.09 61.56 332.09 1.03"/>
    </clipPath>
    <clipPath id="clippath-11">
      <polyline class="cls-13" points="0 1.03 0 61.56 332.09 61.56 332.09 1.03"/>
    </clipPath>
    <clipPath id="clippath-12">
      <polyline class="cls-13" points="0 1.03 0 61.56 332.09 61.56 332.09 1.03"/>
    </clipPath>
    <clipPath id="clippath-13">
      <polyline class="cls-13" points="0 1.03 0 61.56 332.09 61.56 332.09 1.03"/>
    </clipPath>
    <clipPath id="clippath-14">
      <polyline class="cls-13" points="0 1.03 0 61.56 332.09 61.56 332.09 1.03"/>
    </clipPath>
    <clipPath id="clippath-15">
      <polyline class="cls-13" points="0 1.03 0 61.56 332.09 61.56 332.09 1.03"/>
    </clipPath>
    <clipPath id="clippath-16">
      <polyline class="cls-13" points="0 1.03 0 61.56 332.09 61.56 332.09 1.03"/>
    </clipPath>
  </defs>
  <g id="Layer_1-2" data-name="Layer 1">
    <polyline class="cls-13" points="0 1.03 0 61.56 332.09 61.56 332.09 1.03"/>
    <g id="g3035">
      <path id="path3041" class="cls-19" d="M103.2,44.41h0l-5.53,11.66-5.53-11.66h-3.32v15.6h2.76v-10.63l4.97,10.63h2.21l4.97-10.46v10.46h2.58v-15.6h-3.13Z"/>
    </g>
    <g class="cls-12">
      <g id="g3045">
        <path id="path3051" class="cls-19" d="M117.21,44.41h0l-7,15.6h3.13l5.34-12.17,2.21,5.14h-2.76l-.92,2.4h4.79l2.03,4.63h3.32l-7.19-15.6h-2.95Z"/>
      </g>
    </g>
    <g class="cls-8">
      <g id="g3055">
        <path id="path3061" class="cls-19" d="M132.69,55.39h0c0,1.54-.74,2.23-2.76,2.23h-.55v2.4h.55c4.79,0,5.9-2.57,5.9-4.63v-10.97h-3.13s0,10.97,0,10.97Z"/>
      </g>
    </g>
    <g class="cls-3">
      <g id="g3065">
        <path id="path3071" class="cls-19" d="M141.72,60.02h2.95v-15.6h-2.95v15.6Z"/>
      </g>
    </g>
    <g class="cls-14">
      <g id="g3075">
        <path id="path3081" class="cls-19" d="M156.83,44.41h-6.27v15.6h6.27c5.53,0,8.29-2.74,8.29-8.23,0-4.97-2.76-7.37-8.29-7.37Zm0,13.2h-3.32v-10.8h3.32c3.69,0,5.34,1.54,5.34,4.97,0,3.94-1.66,5.83-5.34,5.83Z"/>
      </g>
    </g>
    <polyline class="cls-13" points="0 1.03 0 61.56 332.09 61.56 332.09 1.03"/>
    <g id="g3085">
      <path id="path3091" class="cls-19" d="M183.55,44.41h0l-7.19,15.6h3.13l5.34-12.17,2.4,5.14h-2.95l-.92,2.4h4.79l2.21,4.63h3.13l-7.19-15.6h-2.76Z"/>
    </g>
    <g class="cls-9">
      <g id="g3095">
        <path id="path3101" class="cls-19" d="M197.37,44.41h0v15.6h11.24v-2.4h-8.29v-13.2h-2.95Z"/>
      </g>
    </g>
    <g class="cls-17">
      <g id="g3105">
        <path id="path3111" class="cls-19" d="M221.15,44.41h0v15.6h2.95v-6.69h7.92v-2.4h-7.92v-4.12h8.29v-2.4h-11.24Z"/>
      </g>
    </g>
    <g class="cls-6">
      <g id="g3115">
        <path id="path3121" class="cls-19" d="M247.69,53.84h0c0,2.57-1.3,3.94-4.06,3.94-2.95,0-4.24-1.37-4.24-3.94v-9.43h-2.95v9.43c0,4.12,2.4,6.34,7.19,6.34s7.01-2.23,7.01-6.34v-9.43h-2.95v9.43h0Z"/>
      </g>
    </g>
    <polyline class="cls-13" points="0 1.03 0 61.56 332.09 61.56 332.09 1.03"/>
    <g id="g3135">
      <path id="path3141" class="cls-19" d="M270.72,44.41h0v2.4h4.98v13.2h2.95v-13.2h4.96v-2.4h-12.89Z"/>
    </g>
    <g class="cls-7">
      <g id="g3145">
        <path id="path3151" class="cls-19" d="M291.72,44.41h0l-7.17,15.6h3.12l5.35-12.17,2.41,5.14h-2.97l-.74,2.4h4.81l2.01,4.63h3.14l-7-15.6h-2.97Z"/>
      </g>
    </g>
    <g class="cls-15">
      <g id="g3155">
        <path id="path3161" class="cls-19" d="M305.91,60.02h2.95v-15.6h-2.95v15.6Z"/>
      </g>
    </g>
    <g class="cls-11">
      <g id="g3165">
        <path id="path3171" class="cls-19" d="M328.95,44.41h0l-5.33,11.66-5.52-11.66h-3.32v15.6h2.75v-10.63l4.98,10.63h2.21l4.79-10.46v10.46h2.77v-15.6h-3.34Z"/>
      </g>
    </g>
    <g class="cls-18">
      <g id="g3175">
        <path id="path3181" class="cls-19" d="M121.26,39.1h2.95v-3.09h-2.95v3.09Z"/>
      </g>
    </g>
    <g class="cls-1">
      <g id="g3185">
        <path id="path3191" class="cls-19" d="M129.55,36.01h-3.13v3.09h3.13v-3.09Z"/>
      </g>
    </g>
    <g class="cls-10">
      <g id="g3195">
        <path id="path3201" class="cls-19" d="M192.95,12.86h-2.95v3.26h2.95v-3.26Z"/>
      </g>
    </g>
    <polyline class="cls-13" points="0 1.03 0 61.56 332.09 61.56 332.09 1.03"/>
    <g id="g3205">
      <path id="path3211" class="cls-19" d="M224.65,28.29h0V15.09h-2.95v12.35c0,1.2,0,2.06-.37,2.4-.18,.68-.92,.86-2.03,.86h-22.85c-.74,0-1.29,0-1.84-.34,.92-.51,1.66-1.2,2.4-2.23,.74-1.03,1.1-2.23,1.1-3.6,0-1.54-.55-2.91-1.66-4.12-1.29-1.2-2.95-1.89-5.16-1.89-2.03,0-3.69,.69-4.97,1.89-1.11,1.03-1.66,2.57-1.66,4.12,0,1.37,.37,2.57,1.11,3.6,.55,1.03,1.47,1.71,2.39,2.23-.55,.34-1.29,.34-1.84,.34h-18.61v-.86c0-6.35-2.58-9.43-7.56-9.43-3.32,0-6.82,2.23-9.03,5.83l.55-11.14h-3.13v15.6h-19.35c.18-.69,.18-1.55,.18-2.4v-7.89h-2.76v7.03c0,1.2-.18,2.06-.37,2.4-.37,.68-1.1,.86-2.21,.86h-8.85c-2.76,0-4.61-1.55-4.79-3.94-.37-4.12-2.76-6.35-6.45-6.35h-8.48c-4.42,0-6.63,2.57-6.63,7.89v9.43h2.95v-9.43c0-3.43,1.47-5.49,3.69-5.49h3.13c-.92,1.2-1.29,2.4-1.29,4.12,0,3.94,2.58,6.34,6.45,6.34,2.4,0,4.24-.86,5.35-2.57,1.1,1.89,3.32,2.74,6.26,2.74h69.11c1.84,0,2.95,0,3.5-.17,1.1-.17,2.21-.51,3.5-1.2,1.1,.68,2.21,1.03,3.32,1.2,.55,.17,1.66,.17,3.32,.17h21.93c2.03,0,4.61-.86,4.61-5.14h0Zm-33.36-7.2h0c1.1,0,2.03,.34,2.76,.86,.55,.68,.92,1.37,.92,2.4,0,.86-.37,1.71-.92,2.57-.74,.86-1.48,1.54-2.58,1.89-1.29-.34-2.21-1.03-2.76-1.89-.55-.86-.92-1.72-.92-2.57,0-2.06,1.48-3.26,3.5-3.26Zm-26.72,8.4h0v1.2h-13.27c1.48-4.12,5.53-7.89,8.85-7.89,2.76,0,4.42,2.57,4.42,6.69Zm-60.82,1.2h0c-1.84,0-3.13-1.37-3.13-3.77,0-2.57,1.29-3.94,3.32-3.94,1.84,0,2.95,1.37,2.95,3.77,0,3.6-1.66,3.94-3.13,3.94Z"/>
    </g>
    <g class="cls-4">
      <g id="g3215">
        <path id="path3221" class="cls-19" d="M232.57,15.09h-2.95v18.35h2.95V15.09Z"/>
      </g>
    </g>
    <g class="cls-16">
      <g id="g3255">
        <path id="path3261" class="cls-19" d="M35.02,1.2h0c-1.48,.51-2.76,1.03-4.98,2.23-8.66,4.97-12.53,14.23-12.9,23.15v1.55h0v31.89h11.24V28.47c0-2.06,.92-3.77,2.58-4.97l4.42,4.97,4.42-4.97c1.47,1.2,2.39,2.91,2.39,4.97v31.55h11.24V28.47c0-9.43-8.11-16.98-18.06-16.98-2.4,0-4.79,.51-6.82,1.2h0c2.39-2.4,5.9-3.77,9.58-3.77h0c1.29,0,2.4,0,3.69,.17,9.95,1.54,17.51,9.43,17.51,18.69,.18,.34,.18,.69,.18,1.2v31.04h11.24V28.64c0-13.55-8.84-24.52-23.77-27.61-.55-.17-1.48-.34-2.21-.34-1.1-.17-2.39-.34-3.5-.34-2.39,0-4.24,.52-6.26,.86Zm-2.21-1.2h0C13.45,0,0,12,0,28.12v31.89H11.24V28.12C11.24,13.2,23.4,2.4,35.75,.17c.37,0,1.1-.17,.37-.17h-3.32Z"/>
      </g>
    </g>
    <g class="cls-5">
      <g id="g3225">
        <path id="path3231" class="cls-19" d="M284.35,30.35h0c0-5.83-3.86-9.6-9.94-9.6-3.31,0-5.89,1.03-7.56,2.91l-.17,.34,.17,.34c.93,.86,1.47,1.37,1.84,1.54l.37,.51,.37-.51c.93-1.71,2.58-2.57,4.98-2.57,4.25,0,6.63,2.4,6.63,6.86v.52h-26.91c-.54-6.86-3.86-10.29-10.13-10.29h-.37v2.57h1.11c2.39,.17,3.86,1.03,4.97,2.57,.93,1.2,1.3,3.09,1.47,5.14h-11.42v2.74h44.59v-3.09h0Z"/>
      </g>
    </g>
    <g class="cls-2">
      <g id="g3235">
        <path id="path3241" class="cls-19" d="M276.45,35.84h-2.97v3.26h2.97v-3.26Z"/>
      </g>
    </g>
    <polyline class="cls-13" points="0 1.03 0 61.56 332.09 61.56 332.09 1.03"/>
    <g id="g3245">
      <path id="path3251" class="cls-19" d="M291.92,33.44h28.75c1.1,1.54,2.95,2.4,5.16,2.4,2.01,0,3.68-.68,4.79-2.06,1.1-1.2,1.67-2.74,1.67-4.46,0-2.06-.56-3.6-1.67-4.63-1.1-1.37-2.77-1.89-4.79-1.89s-3.68,.51-4.79,1.71c-1.1,1.37-1.84,2.91-1.84,4.8,0,.52,.17,.86,.17,1.37h-27.08c-.56-.17-1.1-.34-1.3-.69-.37-.51-.54-1.2-.54-2.4V15.09h-2.95v13.72c0,1.54,.54,2.57,1.47,3.43,.74,.86,1.65,1.2,2.95,1.2h0Zm33.91-.17h0c-1.1,0-1.84-.34-2.41-1.2-.54-.69-.91-1.55-.91-2.75s.37-2.06,.91-2.91c.56-.68,1.3-1.2,2.58-1.2,1.1,0,1.84,.34,2.41,1.2,.37,.69,.54,1.54,.54,2.57,0,2.91-.91,4.29-3.12,4.29Z"/>
    </g>
  </g>
</svg>