<?xml version="1.0" encoding="UTF-8"?>
<svg id="Layer_2" data-name="Layer 2" xmlns="http://www.w3.org/2000/svg" viewBox="0 0 275.78 101.26">
  <defs>
    <style>
      .cls-1 {
        fill: #667088;
      }
    </style>
  </defs>
  <g id="Layer_1-2" data-name="Layer 1">
    <g>
      <path class="cls-1" d="M0,83.04c3.66-4.4,6.82-8.22,9.47-11.41,6.48,3.03,12.39,6.34,18.68,8.55,5.03,1.77,10.77,2.26,15.32-1.35,2.33-1.85,4.26-4.96,5.01-7.85,.94-3.63-1.68-6.3-4.97-7.75-6.08-2.67-12.25-5.14-18.37-7.7-7.12-2.97-14.17-6.16-18.28-13.19C-.44,29.85,4.28,15.13,17.84,7.55,31.61-.14,51.39,3.73,63.63,16.72c-3.25,3.88-6.53,7.79-9.98,11.91-2.77-1.92-5.19-3.92-7.9-5.41-5.92-3.27-12.34-4.8-18.53-1.4-2.35,1.29-4.76,4.7-4.86,7.23-.11,2.57,1.96,6.35,4.21,7.66,5.25,3.07,11.19,4.96,16.84,7.36,3.06,1.3,6.2,2.45,9.11,4.02,8.79,4.73,14.44,11.49,14.29,22.15-.16,11.14-6,18.54-15.43,23.17-13.92,6.83-27.55,4.25-40.62-2.73-3.74-2-6.98-4.91-10.76-7.63Z"/>
      <path class="cls-1" d="M103.95,94.89c-5.83,0-10.97,.2-16.07-.16-1.08-.07-2.7-2.05-2.9-3.33-.48-3.1-.32-6.31-.33-9.48-.02-23.66,.05-47.31-.09-70.97-.02-3.71,1.12-4.86,4.84-4.85,14.75,.02,14.64-.09,14.57,14.48-.1,22.82-.03,45.65-.03,68.47,0,1.65,0,3.3,0,5.83Z"/>
      <path class="cls-1" d="M123.69,22.9V6.53c1.91-.08,3.52-.22,5.14-.22,21.3-.04,42.6,.06,63.9-.18,4.28-.05,5.57,1.37,5.25,5.42-.28,3.62-.06,7.27-.06,11.36H123.69Z"/>
      <path class="cls-1" d="M169.9,94.87c-5.77,0-11.05,.13-16.31-.13-.93-.05-2.54-1.75-2.54-2.69-.1-18.6,0-37.2,.07-55.8,0-.28,.31-.56,.64-1.11h18.14v59.72Z"/>
      <path class="cls-1" d="M218.83,26.49c-1.1-5.78-2.09-10.94-3.24-17,18.3-3.15,36.36-6.27,55.09-9.49,1.06,5.51,2.1,10.93,3.21,16.73-18.47,3.27-36.42,6.45-55.06,9.76Z"/>
      <path class="cls-1" d="M218.72,74.58c18.55,3.29,36.51,6.47,55.01,9.75-1.02,5.76-1.99,11.2-3.01,16.92-18.52-3.29-36.49-6.48-54.88-9.74,.95-5.61,1.84-10.81,2.88-16.93Z"/>
      <path class="cls-1" d="M275.78,41.98v16.86h-56.15c0-4.26,.16-8.38-.05-12.48-.18-3.53,1.3-4.62,4.69-4.58,13.34,.17,26.68,.15,40.02,.2,3.64,.01,7.28,0,11.49,0Z"/>
    </g>
  </g>
</svg>